<svg id="Layer_1" data-name="Layer 1" xmlns="http://www.w3.org/2000/svg" viewBox="0 0 334.86 285.61"><defs><style>.cls-1{fill:#1d1d1b;}</style></defs><path class="cls-1" d="M77.94,172.05c2.86,29,1.39,58.31-2,87.24-3.45,29.15-8.83,58-13.63,87C57.5,375,53.11,404,51.89,433.22c-.25,5.89.06,12.46,4.31,17s11.24,5.15,17.2,4.84a113.06,113.06,0,0,0,22.28-3.84c7.44-1.9,14.85-4,22.26-6l89.84-24.19,10.82-2.91c3.11-.84,1.79-5.66-1.33-4.82L129.06,437.1l-22.19,6c-7.22,1.94-14.44,4-21.79,5.48A83.9,83.9,0,0,1,74.48,450a32,32,0,0,1-9.12-.35,9.93,9.93,0,0,1-6.46-4.05,15.21,15.21,0,0,1-2-7.34,82.65,82.65,0,0,1,.23-9.44q.3-5.43.73-10.84.85-10.83,2.13-21.63c1.66-14.21,3.79-28.36,6.09-42.49,4.65-28.54,10-57,13.73-85.67,3.72-28.36,5.85-57,4-85.62q-.35-5.28-.86-10.54a2.57,2.57,0,0,0-2.5-2.5,2.51,2.51,0,0,0-2.5,2.5Z" transform="translate(-51.82 -169.55)"/><path class="cls-1" d="M273.13,379.93a72.84,72.84,0,0,0,36.31-46.14c1.05-4.13,2.06-8.6,1.38-12.86a11.28,11.28,0,0,0-7.86-8.87c-4.07-1.36-8.36-.6-12.17,1.15-4.13,1.89-7.68,5-11.14,7.85s-6.86,5.89-10.13,9a187.64,187.64,0,0,0-17.89,19.8,190.26,190.26,0,0,0-15.19,22.46,121.87,121.87,0,0,0-11.75,26.25c-1.42,4.83-2.63,9.94-1.92,15a19.7,19.7,0,0,0,5.49,10.81c6.34,6.59,15.5,8.6,24.31,9.13,2.42.14,4.85.19,7.28.23,3.22.06,3.22-4.94,0-5-8.23-.15-17.1-.24-24.28-4.81a18.33,18.33,0,0,1-6.8-7.44c-1.78-3.72-1.35-8-.48-11.9,2-8.78,5.59-17.08,9.82-25a184.43,184.43,0,0,1,47.7-57.18c3.18-2.54,6.64-5.13,10.71-5.94,2.71-.54,6,.08,7.94,2.16,2.5,2.68,1.58,7.08.94,10.31a65.82,65.82,0,0,1-3,10.48,67.84,67.84,0,0,1-27.1,33.43c-1.54,1-3.12,1.87-4.74,2.72-2.85,1.49-.32,5.81,2.53,4.32Z" transform="translate(-51.82 -169.55)"/><path class="cls-1" d="M328,377.73c4.24-.16,7.34-3,9.62-6.33a66.63,66.63,0,0,0,6-12,98.24,98.24,0,0,0,6.79-26.95q.38-3.46.49-6.95c.08-2.34.11-4.84-1.9-6.43-3.46-2.74-8.18.1-11.12,2.28-6.61,4.88-10.95,11.93-14,19.44-6.31,15.46-7.6,32.9-4.92,49.29a95.44,95.44,0,0,0,7.35,24.1c3.39,7.43,7.75,14.88,13.48,20.76a29.1,29.1,0,0,0,10.28,7,22,22,0,0,0,12.14.9c8.07-1.57,15-7.24,20.2-13.4a61.9,61.9,0,0,0,3.87-5.12c1.82-2.67-2.51-5.18-4.31-2.53-4.09,6-9.47,11.56-16.15,14.65a19.39,19.39,0,0,1-9.66,1.82,18.36,18.36,0,0,1-9.37-3.78c-5.83-4.29-10-11-13.38-17.24a89,89,0,0,1-8-20.79,90.12,90.12,0,0,1,.11-44.59c1.83-6.95,4.43-13.78,8.64-19.66a29.35,29.35,0,0,1,7.06-7.09c1.23-.85,2.73-2,4.26-2.15a2,2,0,0,1,.44,0c.23,0,.06.08,0-.13a7.69,7.69,0,0,1,.06,2.87,93.39,93.39,0,0,1-4.27,24.53A89.66,89.66,0,0,1,337,362c-1.5,3.17-3,6.71-5.64,9.15a5.26,5.26,0,0,1-3.39,1.59c-3.21.13-3.22,5.13,0,5Z" transform="translate(-51.82 -169.55)"/></svg>