<svg width="34" height="34" viewBox="0 0 34 34" fill="none" xmlns="http://www.w3.org/2000/svg">
<path d="M16.6667 0C14.478 0 12.3107 0.431096 10.2886 1.26867C8.26652 2.10625 6.4292 3.33391 4.88155 4.88155C1.75595 8.00716 0 12.2464 0 16.6667C0 21.0869 1.75595 25.3262 4.88155 28.4518C6.4292 29.9994 8.26652 31.2271 10.2886 32.0647C12.3107 32.9022 14.478 33.3333 16.6667 33.3333C21.0869 33.3333 25.3262 31.5774 28.4518 28.4518C31.5774 25.3262 33.3333 21.0869 33.3333 16.6667C33.3333 14.478 32.9022 12.3107 32.0647 10.2886C31.2271 8.26652 29.9994 6.4292 28.4518 4.88155C26.9041 3.33391 25.0668 2.10625 23.0447 1.26867C21.0226 0.431096 18.8554 0 16.6667 0ZM8.45 27.1333C9.16667 25.6333 13.5333 24.1667 16.6667 24.1667C19.8 24.1667 24.1667 25.6333 24.8833 27.1333C22.5485 28.9926 19.6513 30.0033 16.6667 30C13.5667 30 10.7167 28.9333 8.45 27.1333ZM27.2667 24.7167C24.8833 21.8167 19.1 20.8333 16.6667 20.8333C14.2333 20.8333 8.45 21.8167 6.06667 24.7167C4.29386 22.4076 3.33303 19.5778 3.33333 16.6667C3.33333 9.31667 9.31667 3.33333 16.6667 3.33333C24.0167 3.33333 30 9.31667 30 16.6667C30 19.7 28.9667 22.5 27.2667 24.7167ZM16.6667 6.66667C13.4333 6.66667 10.8333 9.26667 10.8333 12.5C10.8333 15.7333 13.4333 18.3333 16.6667 18.3333C19.9 18.3333 22.5 15.7333 22.5 12.5C22.5 9.26667 19.9 6.66667 16.6667 6.66667ZM16.6667 15C16.0036 15 15.3677 14.7366 14.8989 14.2678C14.4301 13.7989 14.1667 13.163 14.1667 12.5C14.1667 11.837 14.4301 11.2011 14.8989 10.7322C15.3677 10.2634 16.0036 10 16.6667 10C17.3297 10 17.9656 10.2634 18.4344 10.7322C18.9033 11.2011 19.1667 11.837 19.1667 12.5C19.1667 13.163 18.9033 13.7989 18.4344 14.2678C17.9656 14.7366 17.3297 15 16.6667 15Z" fill="black"/>
</svg>
